# xmcd
#
# Track frame offsets:
#	150
#	13840
#	27105
#	40937
#	54810
#	68615
#	81960
#	96982
#	112592
#	126777
#	139915
#	152967
#	167632
#	181065
#	194025
#	208707
# Disc length: 2990 seconds
# Revision: 1
# Processed by: cddbd v1.5.2PL0 Copyright (c) Steve Scherf et al.
#
# Submitted via: libkcddb 0.31
#
DISCID=d30bac10
DTITLE=Eddie Lang and Lonnie Johnson - Blues Guitars Volume I
DYEAR=1996
DGENRE=Blues
TTITLE0=Eddie Lang and Lonnie Johnson - Hot Fingers
TTITLE1=Eddie Lang and Lonnie Johnson - Eddie's Twister
TTITLE2=Eddie Lang and Lonnie Johnson - Playing With Strings
TTITLE3=Eddie Lang and Lonnie Johnson - Have To Change Keys To Play These Blues
TTITLE4=Eddie Lang and Lonnie Johnson - A Little Love, A Little Kiss (Un Peu D'Amour)
TTITLE5=Eddie Lang and Lonnie Johnson - Stompin'  'Em Along Slow
TTITLE6=Eddie Lang and Lonnie Johnson - Midnight Call Blues
TTITLE7=Eddie Lang and Lonnie Johnson - Knockin' A Jug
TTITLE8=Eddie Lang and Lonnie Johnson - Blue Room Blues
TTITLE9=Eddie Lang and Lonnie Johnson - Add A Little Wiggle
TTITLE10=Eddie Lang and Lonnie Johnson - Away Down In The Alley, Blues
TTITLE11=Eddie Lang and Lonnie Johnson - Blue Guitars
TTITLE12=Eddie Lang and Lonnie Johnson - Rainbow Dreams
TTITLE13=Eddie Lang and Lonnie Johnson - Blues In G
TTITLE14=Eddie Lang and Lonnie Johnson - Deep Minor Rhythm
TTITLE15=Eddie Lang and Lonnie Johnson - Mahogany Hall Blues Stomp
EXTD=
EXTT0=
EXTT1=
EXTT2=
EXTT3=
EXTT4=
EXTT5=
EXTT6=
EXTT7=
EXTT8=
EXTT9=
EXTT10=
EXTT11=
EXTT12=
EXTT13=
EXTT14=
EXTT15=
PLAYORDER=
